<?xml version="1.0" standalone="no"?><!DOCTYPE svg PUBLIC "-//W3C//DTD SVG 1.1//EN" "http://www.w3.org/Graphics/SVG/1.1/DTD/svg11.dtd"><svg class="icon" width="200px" height="200.00px" viewBox="0 0 1024 1024" version="1.1" xmlns="http://www.w3.org/2000/svg"><path fill="#333333" d="M863.747179 767.588119l-96.198969 0L767.54821 383.823736c0-130.469494-97.66332-238.122329-223.870744-253.856685-0.171915-17.514909-14.417361-31.661094-31.972179-31.661094-17.554818 0-31.800263 14.147208-31.972179 31.661094C353.526709 145.701406 255.863389 253.354242 255.863389 383.823736l0 383.76336-96.198969 0c-17.520025 0-31.722492 14.202467-31.722492 31.722492l0 0.515746c0 17.520025 14.202467 31.722492 31.722492 31.722492l256.100796 0c0 52.986795 42.954301 95.941096 95.941096 95.941096 52.986795 0 95.941096-42.954301 95.941096-95.941096l256.100796 0c17.520025 0 31.722492-14.202467 31.722492-31.722492l0-0.515746C895.469672 781.790586 881.267205 767.588119 863.747179 767.588119zM319.824119 767.588119 319.824119 553.026392 319.824119 383.823736c0-105.97359 85.908602-191.882192 191.882192-191.882192s191.882192 85.908602 191.882192 191.882192l0 169.202657 0 214.561727L319.824119 767.588119z" /></svg>